<?xml version="1.0" encoding="UTF-8"?>
<svg id="Livello_2" data-name="Livello 2" xmlns="http://www.w3.org/2000/svg" viewBox="0 0 104.79 127.54">
  <defs>
    <style>
      .cls-1 {
        fill: #1d1d1b;
      }
    </style>
  </defs>
  <g id="Livello_1-2" data-name="Livello 1">
    <path class="cls-1" d="M104.25,122.95c.39,.98,.57,1.77,.54,2.39-.03,.62-.26,1.09-.68,1.42-.42,.33-1.07,.54-1.95,.63s-2,.15-3.37,.15-2.46-.05-3.27-.15c-.81-.1-1.45-.24-1.9-.44-.46-.2-.8-.45-1.03-.78-.23-.33-.44-.72-.63-1.17l-12.11-33.69H24.37l-11.62,33.5c-.13,.46-.33,.85-.59,1.17-.26,.33-.62,.6-1.07,.83-.46,.23-1.09,.41-1.9,.54-.81,.13-1.84,.2-3.08,.2-1.37,0-2.51-.07-3.42-.2-.91-.13-1.58-.36-2-.68-.42-.33-.65-.78-.68-1.37-.03-.59,.15-1.37,.54-2.34L44.78,2.73c.2-.52,.49-.96,.88-1.32,.39-.36,.89-.63,1.51-.83,.62-.2,1.37-.34,2.25-.44s1.87-.15,2.98-.15c1.17,0,2.2,.05,3.08,.15s1.63,.24,2.25,.44c.62,.2,1.11,.47,1.46,.83,.36,.36,.63,.8,.83,1.32l44.24,120.21ZM51.81,13.38h-.1L27.88,81.35h48.34L51.81,13.38Z"/>
  </g>
</svg>